<?xml version="1.0" encoding="UTF-8"?>
<!DOCTYPE svg PUBLIC "-//W3C//DTD SVG 1.0//EN" "http://www.w3.org/TR/2001/REC-SVG-20010904/DTD/svg10.dtd">
<!-- Creator: CorelDRAW -->
<svg xmlns="http://www.w3.org/2000/svg" xml:space="preserve" width="76044px" height="154505px" version="1.0" shape-rendering="geometricPrecision" text-rendering="geometricPrecision" image-rendering="optimizeQuality" fill-rule="evenodd" clip-rule="evenodd"
viewBox="0 0 76044 154505.48"
 xmlns:xlink="http://www.w3.org/1999/xlink"
 xmlns:xodm="http://www.corel.com/coreldraw/odm/2003">
  <path id="neck" fill="black" stroke="#FF5555" stroke-width="30.56" stroke-miterlimit="2.61313" d="M32994.92 27781.96c437.78,1046.98 2257.57,657.91 3207.76,990.63 2370.79,138.97 4920.05,130.38 7131.09,-791 -1056.16,-3887.36 -1118.16,-7281.18 -726.19,-12294.98 -1976.41,-1203 -4465.17,-252.25 -6647.09,-584.06 -907.31,180.25 -2859.91,221.28 -2122.53,1706.5 542.78,3662.95 271.18,7438 -843.04,10972.92l0 0 0 0 0 -0.01z"/>
  <path id="rightUpperArm" fill="#00AA00" stroke="#555555" stroke-width="30.56" stroke-miterlimit="2.61313" d="M10280.94 56732.4c-117.88,2138.76 2870.35,2287.2 4035.67,1031.94 4710.39,-4727.01 7429.52,-11004.28 10766.38,-16697.55 1229.38,-1865.41 2162.38,-4922.8 -193.44,-6354.52 -1725.47,-1434.76 -4460.89,-1061.51 -5508.33,1001.66 -2467.57,4043.57 -4504.17,8367.37 -6457.96,12681.66 -917.16,2751.23 -2063.54,5493.4 -2642.35,8336.81l0 0 0.03 0z"/>
  <path id="rightShoulder" fill="#0AA000" stroke="#555555" stroke-width="30.56" stroke-miterlimit="2.61313" d="M17824.87 37678.15c-183.97,2016.39 2061.69,3263.42 3763.92,2275.95 3197.64,-1255.07 6967.02,-2006.51 8857.22,-5221.02 1121,-1709.85 2865.5,-3669.61 2385.82,-5859.42 -1703.51,-1943.82 -4718.71,-591.1 -6889.56,-463.48 -3530.92,382.04 -7103.52,2556.64 -7793.18,6275.53 -268.75,971.56 -358.47,1986.88 -324.22,2992.72l0 -0.28 0 0 0 0z"/>
  <path id="rightLowerArm" fill="#AAAAAA" stroke="#555555" stroke-width="30.56" stroke-miterlimit="2.61313" d="M1892.94 73319.71c34.29,1554.47 2868.83,2621.54 3358.95,794.72 2396.45,-5543.99 7742.96,-9087.78 10494.6,-14380.67 716.19,-2123.42 2443.32,-5036.96 653.78,-7042.62 -1910.41,-1794.69 -5291.33,-1552.22 -6584.96,871.47 -3954.26,5733.15 -5380.7,12699.86 -7820.99,19124.1 -5.88,216.12 -89.75,418.47 -101.38,633l0 0 0 0z"/>
  <path id="rightHand" fill="black" fill-rule="nonzero" d="M3351.92 72581.05c-888.66,48.16 -1714.26,753.41 -1798.73,1658.19 -443.84,1370.79 -998.81,2713.04 -1275.25,4134.02 -119.63,654.5 -221.6,1316.31 -277.94,1973.81 207.22,498.04 188.28,936.32 161.03,1472.95 45.32,467.75 86.91,1005.25 -97.06,1382.1 99.78,365.53 -221.6,1123.44 268.16,1483.09 234.18,596.57 27.84,1336.42 501.75,1845.2 290.12,206.34 611.22,175.37 608.5,622.34 84.16,754.48 1071.07,983.48 1480.35,357.82 484.56,-163.19 127.62,-766.79 654.47,-856.16 589.56,-329.97 191.91,-855.25 -121.28,-1199.1 549.78,-100.97 1060.72,-725.1 740.81,-1276.16 -314.06,-557.13 -1005.84,-848.81 -1142.06,-1519.13 -193.19,-610.13 -193.47,-1256.91 -274.91,-1886.01 125.78,-211.53 290.53,-697.53 356.94,-188.87 235.34,547.09 382.59,1559.66 1182.5,1046.97 800.07,-270 850.38,-1321.16 372.53,-1905.54 -358.78,-633.69 -427.62,-1506.03 -139.93,-2163.85 584.66,-1213.75 971,-2662.57 486.44,-3974.26 -259.01,-666.28 -987.2,-1063.38 -1686.42,-1007.32l0 0 0.1 -0.09 0 0 0 0z"/>
  <path id="leftUpperArm" fill="black" stroke="#555555" stroke-width="30.56" stroke-miterlimit="2.61313" d="M50725.85 37725.62c1005.66,4018.58 3701.24,7370.71 5449.33,11089.88 2119.23,3242.08 4004.27,6903.06 7154.03,9258.6 1479.47,1131.91 4235.01,6.75 3416.76,-2083.98 -1571.47,-5681.96 -3916.26,-11089.1 -6814.46,-16215.12 -1378.13,-2141.88 -2323.7,-5853.36 -5381.11,-5993.89 -1986.29,122.75 -4096.61,1785.26 -3824.55,3944.48l0 0 0 0.03 0 0z"/>
  <path id="leftShoulder" fill="black" stroke="#555555" stroke-width="30.56" stroke-miterlimit="2.61313" d="M44034.43 29521.91c453.9,3178.66 2553.47,6115.14 5074.95,8031.05 2288.45,1030.07 4673.67,2041.76 7097.96,2662.26 2790.48,49.22 3137.64,-3690.76 2178.01,-5625.33 -828.04,-3583.64 -4182.98,-5887.11 -7721.9,-6212.52 -2063.17,-180.84 -4883.05,-1401.03 -6474.43,481.25 -51.75,221.28 -103.22,442.29 -154.59,663.38l0 -0.09 0 0z"/>
  <path id="leftLowerArm" fill="#000AA0" stroke="#555555" stroke-width="30.56" stroke-miterlimit="2.61313" d="M59656.88 54516.8c221,4225.17 2625.76,7855.28 5493.12,10799.51 2429.57,2916.85 4870.14,5916.42 6349.24,9421.93 1407.22,924.69 3676.91,-867.84 2698.6,-2515.88 -2210.73,-6542.49 -3287.58,-13768.67 -7537.21,-19398.97 -1693.73,-2365.23 -6018.68,-1542.47 -6956.96,1070.47l-25.38 336.72 -21.41 286.22 0 0 0 0z"/>
  <path id="leftLowerLeg" fill="#00AAA0" stroke="#555555" stroke-width="30.56" stroke-miterlimit="2.61313" d="M43391.27 118909.2c1226.85,9079.97 4754.73,17829.47 4379.45,27114.03 -314.38,1734.66 1527.5,3367.14 3097.79,2218.63 2958.57,-1970.1 1606.13,-6121.8 1924.51,-9078.81 -194.07,-7091.62 572.16,-14156.55 664.94,-21235.29 -524.72,-4873.86 -1295.79,-9852.59 -3204.36,-14391.01 -912.78,-2116.98 -4109.82,-2398.92 -5182.76,-277.94 -1468.35,2917.26 -744.13,6414.77 -1418.17,9546.84 -206.62,2029.57 -377.12,4062.08 -261.4,6103.55l0 0 0 0z"/>
  <path id="leftHand" fill="black" fill-rule="nonzero" d="M72692.08 70564.17c888.66,48.06 1714.26,753.31 1799.01,1658.19 443.56,1370.69 998.81,2712.95 1274.97,4133.95 119.63,654.47 221.6,1316.29 277.94,1973.79 -206.94,498.03 -188.28,936.41 -160.75,1473.04 -45.6,467.65 -86.91,1005.16 97.09,1382 -99.81,365.53 221.57,1123.44 -268.47,1483.1 -234.15,596.56 -27.84,1336.5 -501.34,1845.19 -290.53,206.35 -611.63,175.47 -608.88,622.35 -84.19,754.59 -1070.81,983.5 -1480.07,357.81 -484.87,-163.09 -127.93,-767.09 -654.78,-856.16 -589.25,-329.97 -191.91,-855.25 121.28,-1199 -549.78,-101.06 -1060.72,-725.19 -740.81,-1276.16 314.06,-557.1 1005.84,-848.82 1142.38,-1519.19 193.15,-610.07 193.15,-1256.94 274.59,-1885.91 -125.47,-211.54 -290.5,-697.66 -356.91,-188.88 -235.47,546.97 -382.34,1559.54 -1182.5,1046.85 -800.19,-270 -850.38,-1321.16 -372.28,-1905.82 358.5,-633.28 427.34,-1505.76 139.65,-2163.54 -584.37,-1213.79 -970.97,-2662.48 -486.4,-3974.48 259.25,-666.1 987.19,-1063.16 1686.28,-1007.13l0 0 0 0 0 0 0 0z"/>
  <path id="leftUpperLeg" fill="lime" stroke="#555555" stroke-width="30.56" stroke-miterlimit="2.61313" d="M38983.32 74824.59c103.81,7739.84 181.84,15599.8 2630.72,23032.42 1161.32,3463.82 741.01,7469.55 2731.32,10623.69 1839.14,2453.51 5525.62,552.53 6148.18,-1986.01 1234.85,-4427.86 1278.97,-9115.21 1987.26,-13649.92 675,-7498.33 -252.22,-15107.33 -2000.07,-22399.35 -562,-3127.79 -3688.33,-5917.4 -6961.52,-4775.33 -3674.49,1270.97 -4148.99,5877.58 -4535.89,9154.5l0 0z"/>
  <path id="leftFoot" fill="black" stroke="#555555" stroke-width="30.56" stroke-miterlimit="2.61313" d="M47030.59 152145.34c75.88,1274.98 1401.95,1525.94 2419.1,1614.13 1304.66,1458.88 3549.39,257.72 5205.71,332.13 1532,129.19 2882.29,-1495.69 1796.25,-2861.79 -1248.03,-1616.01 -2979.94,-2937.76 -3272.01,-5131.58 -757.31,-2335.32 -863.47,-5126.11 -2691.57,-6941.9 -1731.63,-258.69 -2143.35,2269.42 -2604.66,3452.61 -554.1,2860.79 -217.38,5821.8 -904.29,8672.24 -7.31,290.22 8.28,577.04 51.47,864.16l0 0 0 0z"/>
  <path id="leftKnee" fill="black" stroke="#555555" stroke-width="30.56" stroke-miterlimit="2.61313" d="M44772.71 106151.85c-126.97,1882.6 450.28,4920.33 2813.45,4992.61 2383.94,-914.94 2369,-4376.7 1479.75,-6345.65 -553.13,-2181.32 -3905.92,-1795.88 -4072.11,402.85 -91.62,315.03 -188,622.34 -221.09,950.19z"/>
  <path id="rightLowerLeg" fill="#FFFBBB" stroke="#555555" stroke-width="30.56" stroke-miterlimit="2.61313" d="M23080.2 118345.92c431.91,8282.62 1099.19,16568.09 798.6,24873.64 -327.82,2153.48 428.22,5597.77 3222.32,5380.8 2355.54,-530.19 1561.22,-3672.42 1899.41,-5446.92 184.29,-8645.41 3590.67,-16793.93 4330.8,-25347.43 -21.38,-4405.23 -895.97,-8784.37 -1580.07,-13118.89 -321.75,-2373.22 -3578.07,-4032.98 -5246.99,-1895.97 -2073.22,3362.85 -2302.82,7520.71 -3071.16,11315.75 -209.38,1406.63 -292.97,2819.61 -352.91,4239.02l0 0 0 0z"/>
  <path id="rightUpperLeg" fill="#0FF000" stroke="#555555" stroke-width="30.56" stroke-miterlimit="2.61313" d="M23413.76 84764.78c-302.43,6948.64 978.04,13835.39 1852.92,20696.53 231.15,2640.7 3302.32,5480.8 5847.89,3598.89 2553.48,-2668.32 2026.73,-6797.08 3091.07,-10117.47 2229.95,-7982.71 2915.58,-16310.62 2666.76,-24568.42 -312.78,-3422.33 -1325.75,-8116.44 -5324.45,-8841.63 -3443.01,-728.28 -6088.12,2460.82 -6479.62,5595.96 -975.84,4471.33 -1324.56,9078.78 -1654.57,13636.14l0 0z"/>
  <path id="rightFoot" fill="black" stroke="#555555" stroke-width="30.56" stroke-miterlimit="2.61313" d="M18701.62 152408.59c15.25,2095.01 2831.79,1647.45 4213.52,1977.45 1019.63,104.97 2255.44,305.84 3066.57,-460.07 1511.91,-86.62 4001.82,-124.03 3806.2,-2320.01 -694.03,-3919.95 -74.09,-8280.46 -2222.32,-11808.35 -957.22,-1655.72 -2455.95,267.19 -2643.92,1439.26 -1266,3022.23 -1417.28,6957.24 -4564.29,8769.71 -680.47,668.85 -1609.26,1369.23 -1656.04,2402.01l0.28 0 0 0 0 0 0 0z"/>
  <path id="rightKnee" fill="black" stroke="#555555" stroke-width="30.56" stroke-miterlimit="2.61313" d="M26091.27 107395.29c-190.62,1663.94 1171.19,4715.27 3194.61,3448.89 1914.03,-1418.85 2066.19,-4593.8 990.5,-6532.93 -1246.75,-2162.69 -4264.01,-315.94 -4062.92,1791.94 -53.53,430.1 -120.03,857.72 -122.19,1292.1l0 0 0 0z"/>
  <path id="frontAbdomen" fill="blue" stroke="#555555" stroke-width="30.56" stroke-miterlimit="2.61313" d="M25861.8 70361.82c-46.87,3005.36 2655.42,4991.36 3222.01,7840.34 968.26,3399.01 5213.33,3678.48 8123.75,3246.26 3134.54,-107.12 6820.71,842.98 9417.75,-1490.41 1398.63,-2100.85 1403.51,-4812.64 2871.26,-6904.3 1194.72,-3278.98 245.5,-7300.31 -1994.04,-9920.28 -2545.57,-2374.79 -6308.21,-2893.92 -9655.12,-3097.55 -3720.77,278.32 -8256.06,804.79 -10517.85,4156.99 -1047.85,1861.1 -1404.47,4058.04 -1467.76,6168.96l0 0 0 0 0 -0.01z"/>
  <path id="lowerBody" fill="fuchsia" stroke="#555555" stroke-width="30.56" stroke-miterlimit="2.61313" d="M27416.47 65584.06c-269.04,4090.29 3321.26,7228.74 7141.11,7716.99 4670.64,798.63 10979.48,91.82 13145.86,-4795.73 1569.69,-4697.61 -986.32,-9525.47 -395.22,-14326.49 382.91,-4460.2 -217.97,-9940.81 -4580.33,-12326.6 -5150.2,-3343.92 -12976.39,-99.81 -14007.14,6025.71 -785.44,4661.07 429.78,9478.59 -886.13,14105.76 -204.19,1193.76 -377.16,2387.89 -418.16,3600.36l0 0 0 0 0.01 0z"/>
  <path id="upperBody" fill="#000FF0" stroke="#555FF5" stroke-width="30.56" stroke-miterlimit="2.61313" d="M23869.64 33651.92c-481.56,5840.87 1190.69,11834.45 4273.48,16763.37 2228.2,2243.45 5630.3,3097.82 8719.22,3384.64 3945.36,191.31 8586.9,-517.1 11182.69,-3763.64 3010.89,-5626.86 5295.05,-12171.42 4250.33,-18613.16 -1126.85,-3584.82 -5213.3,-4817.11 -8037.78,-6781.46 -4027.79,-2606.19 -9384.37,-1997.32 -13153.48,802.35 -2986.66,1841.19 -7071.96,3706.01 -7164.36,7782.71l-54.88 333.1 -15.22 92.09 0 0z"/>
  <path id="leftEar" fill="#F15B8C" d="M47503.87 7974.24c857.95,-1678.97 -2482,-2674.32 -2926.54,-550.06l-35.59 2495.35c34.16,1743.69 2397.51,1482.5 2266.54,-157.94 -152.66,-1161 530.13,-944.34 695.59,-1787.35l0 0z"/>
  <path id="rightEar" fill="#373435" d="M29307.32 8395.65c-858.07,-1678.97 2481.88,-2673.94 2926.79,-549.69l35.22 2495.48c-34.04,1743.32 -2397.39,1482.5 -2266.42,-158.28 152.66,-1161.16 -530.25,-944.47 -695.59,-1787.51l0 0 0 0z"/>
  <path id="mouth" fill="lime" stroke="#555555" stroke-width="30.56" stroke-miterlimit="2.61313" d="M31906.64 8580.56c215.43,2855.82 620.59,6022.58 2086.31,8552.03 2136.29,3686.79 6550.4,3512.76 8336.31,-108.1 2375.39,-3630.73 3199.67,-8336.53 2016.88,-12522.79l-11987.75 0c-346.47,1328.51 -481.13,2707.48 -451.76,4078.86l0 0 0 0 0.01 0z"/>
  <path id="frontHead" fill="#373435" stroke="#555555" stroke-width="27.53" stroke-miterlimit="2.61313" d="M44337.27 4505.29c-199.53,-708 -456.34,-1401.63 -773.16,-2072.32 -2666.57,-3833.07 -10199.88,-3044.79 -11161.28,1863.64 -19.35,69.43 -37.97,139.28 -56.35,208.68l11990.79 0z"/>
  <path id="leftEye" fill="#E74033" d="M37441.94 12596.7c-521.6,0 -824.04,658.69 -435.57,1076.28 74.03,79.88 233.5,192.47 357.25,223.13 102.82,25.69 153.6,7.62 253.1,4.28 202.34,-7.31 177.84,222.28 740.44,222.28 400.37,0 514.34,-218.25 634.25,-225 67.41,-4 173.66,24.41 274.03,4.59 241.5,-47.47 556.44,-360.34 556.44,-664.65 0,-316.19 -286.41,-640.91 -610.06,-640.91 -156.04,-670.1 -100.97,-738.66 -173.51,-1230.26 -102.25,-691.78 -309.18,-814.25 -802.93,-814.25 -414.16,0 -586.51,409.28 -633.69,770.13 -29.38,225.28 -18.94,425.56 -54.1,647.44 -32.81,204.5 -105.65,435.53 -105.65,626.94l0 0 0 0z"/>
  <path id="rightEye" fill="#2DC2D8" d="M43070.8 8709.03c-1057.72,1117.44 -2223.54,1197.09 -3521.39,9 1112.38,-1219.19 2288.92,-1167.41 3521.39,-9zm-1735.59 -227.37c238.53,0 212.22,-7.49 212.22,231.05 0,238.53 1.21,205.91 -237.33,205.91 -238.53,0 -237.32,-11.32 -237.32,-249.85 0,-238.53 23.9,-187.11 262.43,-187.11z"/>
  <path id="nose" fill="#FFCD44" d="M36935.62 8709.03c-1057.72,1117.44 -2223.54,1197.09 -3521.39,9 1112.38,-1219.19 2288.92,-1167.41 3521.39,-9zm-1760.69 -195.99c238.53,0 243.6,-51.42 243.6,187.11 0,238.53 -5.07,249.85 -243.6,249.85 -238.53,0 -276.36,0.09 -276.36,-238.44 0,-238.53 37.83,-198.52 276.36,-198.52z"/>
  <path id="lips" fill="#585570" d="M36271.43 16514.77c671.53,-475.84 1349.79,-866.22 2093.04,-433.19 526.53,-342.34 1217.54,-224.12 2100.91,432.69 -519.75,1066.41 -1177.72,1632.88 -2101.94,1236.07 -707.66,294.78 -1408.16,99.78 -2092.01,-1235.57zm4192.42 -0.56c-1296.64,454.5 -3009.2,483.33 -4189.17,1.56 1394.6,401.94 2794.57,398.41 4189.17,-1.56z"/>
 </svg>
